<mxfile host="app.diagrams.net" modified="2022-05-18T14:48:48.101Z" agent="5.0 (Windows)" etag="qLqvD23mr4H1AeJrYoc3" version="15.9.6" type="github" pages="2">
  <diagram id="FbTJ7Jmv7p_lXYxvziBR" name="Page-1">
    <mxGraphModel dx="868" dy="507" grid="1" gridSize="10" guides="1" tooltips="1" connect="1" arrows="1" fold="1" page="1" pageScale="1" pageWidth="827" pageHeight="1169" math="0" shadow="0">
      <root>
        <mxCell id="0" />
        <mxCell id="1" parent="0" />
        <mxCell id="B0Ncvwh2-p1HZkXjdUXO-1" value="Actor" style="shape=umlActor;verticalLabelPosition=bottom;verticalAlign=top;html=1;outlineConnect=0;" vertex="1" parent="1">
          <mxGeometry x="130" y="360" width="30" height="60" as="geometry" />
        </mxCell>
        <mxCell id="B0Ncvwh2-p1HZkXjdUXO-2" value="Ajout de patient" style="ellipse;whiteSpace=wrap;html=1;" vertex="1" parent="1">
          <mxGeometry x="270" y="260" width="120" height="80" as="geometry" />
        </mxCell>
        <mxCell id="B0Ncvwh2-p1HZkXjdUXO-3" value="Rechercher un patient" style="ellipse;whiteSpace=wrap;html=1;" vertex="1" parent="1">
          <mxGeometry x="270" y="360" width="120" height="80" as="geometry" />
        </mxCell>
        <mxCell id="B0Ncvwh2-p1HZkXjdUXO-5" value="Inscription" style="ellipse;whiteSpace=wrap;html=1;" vertex="1" parent="1">
          <mxGeometry x="270" y="170" width="120" height="80" as="geometry" />
        </mxCell>
        <mxCell id="B0Ncvwh2-p1HZkXjdUXO-6" value="Voir details et historique d&#39;un patient" style="ellipse;whiteSpace=wrap;html=1;" vertex="1" parent="1">
          <mxGeometry x="270" y="460" width="120" height="80" as="geometry" />
        </mxCell>
        <mxCell id="B0Ncvwh2-p1HZkXjdUXO-7" value="Ajout de viste d&#39;un patient" style="ellipse;whiteSpace=wrap;html=1;" vertex="1" parent="1">
          <mxGeometry x="270" y="570" width="120" height="80" as="geometry" />
        </mxCell>
        <mxCell id="B0Ncvwh2-p1HZkXjdUXO-9" value="" style="endArrow=none;html=1;rounded=0;entryX=0;entryY=0.5;entryDx=0;entryDy=0;" edge="1" parent="1" target="B0Ncvwh2-p1HZkXjdUXO-5">
          <mxGeometry width="50" height="50" relative="1" as="geometry">
            <mxPoint x="160" y="380" as="sourcePoint" />
            <mxPoint x="210" y="330" as="targetPoint" />
          </mxGeometry>
        </mxCell>
        <mxCell id="B0Ncvwh2-p1HZkXjdUXO-11" value="" style="endArrow=none;html=1;rounded=0;entryX=0;entryY=0.5;entryDx=0;entryDy=0;" edge="1" parent="1" target="B0Ncvwh2-p1HZkXjdUXO-2">
          <mxGeometry width="50" height="50" relative="1" as="geometry">
            <mxPoint x="160" y="380" as="sourcePoint" />
            <mxPoint x="210" y="330" as="targetPoint" />
          </mxGeometry>
        </mxCell>
        <mxCell id="B0Ncvwh2-p1HZkXjdUXO-12" value="" style="endArrow=none;html=1;rounded=0;entryX=0;entryY=0.5;entryDx=0;entryDy=0;" edge="1" parent="1" target="B0Ncvwh2-p1HZkXjdUXO-3">
          <mxGeometry width="50" height="50" relative="1" as="geometry">
            <mxPoint x="160" y="380" as="sourcePoint" />
            <mxPoint x="240" y="350" as="targetPoint" />
          </mxGeometry>
        </mxCell>
        <mxCell id="B0Ncvwh2-p1HZkXjdUXO-13" value="" style="endArrow=none;html=1;rounded=0;exitX=1;exitY=0.3333333333333333;exitDx=0;exitDy=0;exitPerimeter=0;entryX=0.05;entryY=0.2;entryDx=0;entryDy=0;entryPerimeter=0;" edge="1" parent="1" source="B0Ncvwh2-p1HZkXjdUXO-1" target="B0Ncvwh2-p1HZkXjdUXO-6">
          <mxGeometry width="50" height="50" relative="1" as="geometry">
            <mxPoint x="170" y="450" as="sourcePoint" />
            <mxPoint x="220" y="400" as="targetPoint" />
          </mxGeometry>
        </mxCell>
        <mxCell id="B0Ncvwh2-p1HZkXjdUXO-14" value="" style="endArrow=none;html=1;rounded=0;exitX=1;exitY=0.3333333333333333;exitDx=0;exitDy=0;exitPerimeter=0;entryX=0.067;entryY=0.288;entryDx=0;entryDy=0;entryPerimeter=0;" edge="1" parent="1" source="B0Ncvwh2-p1HZkXjdUXO-1" target="B0Ncvwh2-p1HZkXjdUXO-7">
          <mxGeometry width="50" height="50" relative="1" as="geometry">
            <mxPoint x="170" y="510" as="sourcePoint" />
            <mxPoint x="220" y="460" as="targetPoint" />
          </mxGeometry>
        </mxCell>
        <mxCell id="B0Ncvwh2-p1HZkXjdUXO-15" value="Connexion" style="ellipse;whiteSpace=wrap;html=1;" vertex="1" parent="1">
          <mxGeometry x="550" y="320" width="120" height="80" as="geometry" />
        </mxCell>
        <mxCell id="B0Ncvwh2-p1HZkXjdUXO-16" value="" style="endArrow=classic;html=1;rounded=0;exitX=1;exitY=0.5;exitDx=0;exitDy=0;" edge="1" parent="1" source="B0Ncvwh2-p1HZkXjdUXO-5" target="B0Ncvwh2-p1HZkXjdUXO-15">
          <mxGeometry relative="1" as="geometry">
            <mxPoint x="440" y="220" as="sourcePoint" />
            <mxPoint x="540" y="220" as="targetPoint" />
          </mxGeometry>
        </mxCell>
        <mxCell id="B0Ncvwh2-p1HZkXjdUXO-17" value="&quot;extends&quot;" style="edgeLabel;resizable=0;html=1;align=center;verticalAlign=middle;" connectable="0" vertex="1" parent="B0Ncvwh2-p1HZkXjdUXO-16">
          <mxGeometry relative="1" as="geometry" />
        </mxCell>
        <mxCell id="B0Ncvwh2-p1HZkXjdUXO-18" value="" style="endArrow=classic;html=1;rounded=0;exitX=1;exitY=0.5;exitDx=0;exitDy=0;entryX=0;entryY=0.5;entryDx=0;entryDy=0;" edge="1" parent="1" source="B0Ncvwh2-p1HZkXjdUXO-2" target="B0Ncvwh2-p1HZkXjdUXO-15">
          <mxGeometry relative="1" as="geometry">
            <mxPoint x="360" y="400" as="sourcePoint" />
            <mxPoint x="460" y="400" as="targetPoint" />
            <Array as="points" />
          </mxGeometry>
        </mxCell>
        <mxCell id="B0Ncvwh2-p1HZkXjdUXO-19" value="&quot;include&quot;" style="edgeLabel;resizable=0;html=1;align=center;verticalAlign=middle;" connectable="0" vertex="1" parent="B0Ncvwh2-p1HZkXjdUXO-18">
          <mxGeometry relative="1" as="geometry" />
        </mxCell>
        <mxCell id="B0Ncvwh2-p1HZkXjdUXO-20" value="" style="endArrow=classic;html=1;rounded=0;entryX=0.042;entryY=0.713;entryDx=0;entryDy=0;entryPerimeter=0;exitX=1;exitY=0.5;exitDx=0;exitDy=0;" edge="1" parent="1" source="B0Ncvwh2-p1HZkXjdUXO-3" target="B0Ncvwh2-p1HZkXjdUXO-15">
          <mxGeometry relative="1" as="geometry">
            <mxPoint x="400" y="400" as="sourcePoint" />
            <mxPoint x="460" y="400" as="targetPoint" />
          </mxGeometry>
        </mxCell>
        <mxCell id="B0Ncvwh2-p1HZkXjdUXO-21" value="&quot;include&quot;" style="edgeLabel;resizable=0;html=1;align=center;verticalAlign=middle;" connectable="0" vertex="1" parent="B0Ncvwh2-p1HZkXjdUXO-20">
          <mxGeometry relative="1" as="geometry" />
        </mxCell>
        <mxCell id="B0Ncvwh2-p1HZkXjdUXO-22" value="" style="endArrow=classic;html=1;rounded=0;exitX=1;exitY=0.5;exitDx=0;exitDy=0;entryX=0;entryY=1;entryDx=0;entryDy=0;" edge="1" parent="1" source="B0Ncvwh2-p1HZkXjdUXO-6" target="B0Ncvwh2-p1HZkXjdUXO-15">
          <mxGeometry relative="1" as="geometry">
            <mxPoint x="450" y="440" as="sourcePoint" />
            <mxPoint x="550" y="440" as="targetPoint" />
          </mxGeometry>
        </mxCell>
        <mxCell id="B0Ncvwh2-p1HZkXjdUXO-23" value="&quot;include&quot;" style="edgeLabel;resizable=0;html=1;align=center;verticalAlign=middle;" connectable="0" vertex="1" parent="B0Ncvwh2-p1HZkXjdUXO-22">
          <mxGeometry relative="1" as="geometry" />
        </mxCell>
        <mxCell id="B0Ncvwh2-p1HZkXjdUXO-24" value="" style="endArrow=classic;html=1;rounded=0;exitX=1;exitY=0.275;exitDx=0;exitDy=0;exitPerimeter=0;entryX=0.275;entryY=0.975;entryDx=0;entryDy=0;entryPerimeter=0;" edge="1" parent="1" source="B0Ncvwh2-p1HZkXjdUXO-7" target="B0Ncvwh2-p1HZkXjdUXO-15">
          <mxGeometry relative="1" as="geometry">
            <mxPoint x="450" y="510" as="sourcePoint" />
            <mxPoint x="550" y="510" as="targetPoint" />
          </mxGeometry>
        </mxCell>
        <mxCell id="B0Ncvwh2-p1HZkXjdUXO-25" value="&quot;include&quot;" style="edgeLabel;resizable=0;html=1;align=center;verticalAlign=middle;" connectable="0" vertex="1" parent="B0Ncvwh2-p1HZkXjdUXO-24">
          <mxGeometry relative="1" as="geometry" />
        </mxCell>
      </root>
    </mxGraphModel>
  </diagram>
  <diagram id="qrd-f_NkLuo-KJC-9-1U" name="Page-2">
    <mxGraphModel dx="868" dy="507" grid="1" gridSize="10" guides="1" tooltips="1" connect="1" arrows="1" fold="1" page="1" pageScale="1" pageWidth="827" pageHeight="1169" math="0" shadow="0">
      <root>
        <mxCell id="hQ6GOiF-81EpiHfUN1o3-0" />
        <mxCell id="hQ6GOiF-81EpiHfUN1o3-1" parent="hQ6GOiF-81EpiHfUN1o3-0" />
      </root>
    </mxGraphModel>
  </diagram>
</mxfile>
